<svg width="12" height="12" viewBox="0 0 12 12" fill="none" xmlns="http://www.w3.org/2000/svg">
<path d="M0.113626 5.72706C0.0952692 5.74541 0.0788164 5.76551 0.0645123 5.78707L0.0487967 5.81611L0.0291519 5.85288L0.0173645 5.8916L0.00754261 5.92451C-0.00251484 5.97435 -0.00251484 6.02565 0.00754261 6.07549L0.0173645 6.1084L0.0291519 6.14712L0.0487967 6.18389L0.0645123 6.21293C0.0788164 6.23449 0.0952692 6.25459 0.113626 6.27294L5.81084 11.8865C5.88457 11.9592 5.98456 12 6.08883 12C6.19309 12 6.29309 11.9592 6.36681 11.8865C6.44054 11.8139 6.48196 11.7154 6.48196 11.6126C6.48196 11.5099 6.44054 11.4114 6.36681 11.3387L1.33951 6.38908H11.6071C11.7113 6.38908 11.8112 6.34829 11.8849 6.27569C11.9586 6.20308 12 6.10461 12 6.00194C12 5.89926 11.9586 5.80079 11.8849 5.72818C11.8112 5.65558 11.7113 5.61479 11.6071 5.61479H1.33951L6.36485 0.661266C6.40135 0.625296 6.43031 0.582594 6.45007 0.535597C6.46983 0.4886 6.47999 0.43823 6.47999 0.387361C6.47999 0.336492 6.46983 0.286121 6.45007 0.239124C6.43031 0.192128 6.40135 0.149425 6.36485 0.113455C6.32834 0.0774857 6.285 0.048953 6.23731 0.0294863C6.18961 0.0100196 6.13849 0 6.08686 0C6.03524 0 5.98412 0.0100196 5.93642 0.0294863C5.88872 0.048953 5.84539 0.0774857 5.80888 0.113455L0.113626 5.72706Z" fill="white"/>
</svg>
