<svg xmlns="http://www.w3.org/2000/svg" xmlns:xlink="http://www.w3.org/1999/xlink" width="20" height="21" viewBox="0 0 20 21">
  <defs>
    <clipPath id="clip-path">
      <rect id="Rectangle_6431" data-name="Rectangle 6431" width="20" height="21" transform="translate(0.438)" fill="none"/>
    </clipPath>
  </defs>
  <g id="Group_10480" data-name="Group 10480" transform="translate(-0.438)">
    <g id="Group_10481" data-name="Group 10481" clip-path="url(#clip-path)">
      <path id="Path_15331" data-name="Path 15331" d="M17.961,5.237h-2.5a.379.379,0,0,1-.237-.088L14.111,3.385a.835.835,0,0,0-.067-.093,2.193,2.193,0,0,0-1.675-.809H8.4a2.176,2.176,0,0,0-1.66.809.744.744,0,0,0-.064.088L5.643,5.009a.944.944,0,0,0-.932-.8H3.678a.944.944,0,0,0-.942.942v.091A2.322,2.322,0,0,0,.5,7.556v8.26a2.321,2.321,0,0,0,2.319,2.319H17.961a2.321,2.321,0,0,0,2.32-2.319V7.556a2.322,2.322,0,0,0-2.32-2.32m.435,2.32v8.26a.436.436,0,0,1-.435.435H2.819a.435.435,0,0,1-.434-.435V7.556a.435.435,0,0,1,.434-.435H5.445a2.175,2.175,0,0,0,1.627-.857l1.14-1.8a.288.288,0,0,1,.2-.1h3.944a.325.325,0,0,1,.186.061l1.117,1.764a.835.835,0,0,0,.067.093,2.258,2.258,0,0,0,1.7.836h2.537a.436.436,0,0,1,.435.435" transform="translate(0.021 0.102)" fill="#1d1d1d"/>
      <path id="Path_15332" data-name="Path 15332" d="M10.173,6.451a4.383,4.383,0,1,0,4.384,4.383,4.388,4.388,0,0,0-4.384-4.383m2.5,4.383a2.5,2.5,0,1,1-2.5-2.5,2.5,2.5,0,0,1,2.5,2.5" transform="translate(0.238 0.265)" fill="#1d1d1d"/>
    </g>
  </g>
</svg>
