<svg id="Group_10771" data-name="Group 10771" xmlns="http://www.w3.org/2000/svg" xmlns:xlink="http://www.w3.org/1999/xlink" width="13.571" height="13.571" viewBox="0 0 13.571 13.571">
  <defs>
    <clipPath id="clip-path">
      <rect id="Rectangle_6545" data-name="Rectangle 6545" width="13.571" height="13.571" fill="red"/>
    </clipPath>
  </defs>
  <g id="Group_10770" data-name="Group 10770" clip-path="url(#clip-path)">
    <path id="Path_15498" data-name="Path 15498" d="M12.533,1.191H1.359a.892.892,0,0,0-.859.92v1.38a.892.892,0,0,0,.859.919h.472l.731,7.517a1.325,1.325,0,0,0,1.28,1.219H10.05a1.326,1.326,0,0,0,1.28-1.224l.73-7.512h.472a.892.892,0,0,0,.86-.919V2.111a.893.893,0,0,0-.86-.92m-2.057,10.63a.441.441,0,0,1-.426.405H3.843a.44.44,0,0,1-.426-.4L2.7,4.409h8.5Zm2.057-8.33H1.359V2.111H12.533Z" transform="translate(-0.161 -0.383)" fill="red"/>
    <path id="Path_15499" data-name="Path 15499" d="M7.2,12.648a.428.428,0,0,0,.624,0L9.06,11.364l1.232,1.284a.428.428,0,0,0,.624,0,.473.473,0,0,0,0-.65L9.683,10.713l1.232-1.284a.473.473,0,0,0,0-.65.428.428,0,0,0-.624,0L9.06,10.063,7.827,8.779a.428.428,0,0,0-.624,0,.473.473,0,0,0,0,.65l1.232,1.284L7.2,12a.473.473,0,0,0,0,.65" transform="translate(-2.274 -2.779)" fill="red"/>
  </g>
</svg>
