<svg width="12" height="7" viewBox="0 0 12 7" fill="none" xmlns="http://www.w3.org/2000/svg">
<path d="M5.9846 7C5.87892 7 5.78205 6.98196 5.69399 6.94588C5.60593 6.9098 5.51787 6.84667 5.4298 6.75647L0.198917 1.39882C0.0580174 1.25451 -0.00802919 1.06059 0.000777018 0.817059C0.00958323 0.573529 0.0844361 0.379607 0.225335 0.235294C0.40146 0.0549016 0.590793 -0.0217647 0.793336 0.00529414C0.995878 0.032353 1.17641 0.118039 1.33492 0.262353L5.9846 5.02471L10.6343 0.262353C10.7752 0.118039 10.9645 0.0368626 11.2023 0.0188233C11.44 0.000784127 11.6294 0.081961 11.7703 0.262353C11.9464 0.406667 12.0213 0.596078 11.9948 0.830588C11.9684 1.0651 11.8848 1.26353 11.7439 1.42588L6.53939 6.75647C6.45132 6.84667 6.36326 6.9098 6.2752 6.94588C6.18714 6.98196 6.09027 7 5.9846 7Z" fill="#A8A8A8"/>
</svg>
