<svg xmlns="http://www.w3.org/2000/svg" xmlns:xlink="http://www.w3.org/1999/xlink" width="20" height="20" viewBox="0 0 20 20">
  <defs>
    <clipPath id="clip-path">
      <rect id="Rectangle_6432" data-name="Rectangle 6432" width="20" height="20" fill="none"/>
    </clipPath>
  </defs>
  <g id="Group_10483" data-name="Group 10483" clip-path="url(#clip-path)">
    <path id="Path_15333" data-name="Path 15333" d="M6.834,6.833a1.893,1.893,0,0,1-1.885,1.9H4.934a1.892,1.892,0,0,1-1.9-1.884V6.833a1.891,1.891,0,0,1,1.884-1.9h.016a1.893,1.893,0,0,1,1.9,1.884v.016m10.133,3.8v4.433H3.034v-1.9L6.2,10l1.584,1.583L12.85,6.516Zm.95-6.967H2.084a.322.322,0,0,0-.317.317V16.016a.322.322,0,0,0,.317.317H17.917a.321.321,0,0,0,.316-.317V3.983a.321.321,0,0,0-.316-.317m1.583.317V16.016A1.588,1.588,0,0,1,17.917,17.6H2.084a1.526,1.526,0,0,1-1.119-.465A1.526,1.526,0,0,1,.5,16.016V3.983A1.526,1.526,0,0,1,.965,2.865,1.526,1.526,0,0,1,2.084,2.4H17.917A1.588,1.588,0,0,1,19.5,3.983" fill="#1d1d1d"/>
  </g>
</svg>
