<svg width="17" height="17" viewBox="0 0 17 17" fill="none" xmlns="http://www.w3.org/2000/svg">
<path fill-rule="evenodd" clip-rule="evenodd" d="M15.5556 10.3214H14.2934C13.5775 12.5976 11.5551 14.2976 9.10714 14.5417V12.75H7.89286V14.5417C5.02654 14.2563 2.74368 11.9735 2.45832 9.10714H4.25V7.89286H2.45832C2.74368 5.02654 5.02654 2.74368 7.89286 2.45832V4.25H9.10714V2.45832C11.9735 2.74368 14.2563 5.02654 14.5417 7.89286H12.75V9.10714H17V7.89286H15.7608C15.4682 4.35504 12.6438 1.53121 9.10714 1.23918V0H7.89286V1.23918C4.35504 1.53182 1.53121 4.35625 1.23918 7.89286H0V9.10714H1.23918C1.53182 12.645 4.35625 15.4688 7.89286 15.7608V17H9.10714V15.7608C12.2285 15.5028 14.7943 13.2734 15.5556 10.3214ZM8.5 5.46429C6.82429 5.46429 5.46429 6.82429 5.46429 8.5C5.46429 10.1757 6.82429 11.5357 8.5 11.5357C10.1757 11.5357 11.5357 10.1757 11.5357 8.5C11.5357 6.82429 10.1757 5.46429 8.5 5.46429ZM8.5 6.67857C9.50543 6.67857 10.3214 7.49457 10.3214 8.5C10.3214 9.50543 9.50543 10.3214 8.5 10.3214C7.49457 10.3214 6.67857 9.50543 6.67857 8.5C6.67857 7.49457 7.49457 6.67857 8.5 6.67857ZM8.5 7.89286C8.83514 7.89286 9.10714 8.16486 9.10714 8.5C9.10714 8.83514 8.83514 9.10714 8.5 9.10714C8.16486 9.10714 7.89286 8.83514 7.89286 8.5C7.89286 8.16486 8.16486 7.89286 8.5 7.89286Z" fill="white"/>
</svg>
