<svg xmlns="http://www.w3.org/2000/svg" width="15" height="14.999" viewBox="0 0 15 14.999">
  <g id="password" transform="translate(-3 -3)">
    <path id="Path_15189" data-name="Path 15189" d="M13.178,3A4.82,4.82,0,0,0,8.565,9.22L3,14.785V18H6.214l5.565-5.565A4.821,4.821,0,1,0,13.178,3Zm0,8.571a3.757,3.757,0,0,1-1.088-.162l-.614-.186-.454.454-1.7,1.7-.739-.738-.757.757.739.739-.85.85-.739-.739-.757.757.739.739L5.77,16.927h-1.7v-1.7L9.322,9.978l.454-.454L9.59,8.91a3.75,3.75,0,1,1,3.588,2.661Z" transform="translate(0 0)" fill="#b3b3b3"/>
    <circle id="Ellipse_18" data-name="Ellipse 18" cx="1.071" cy="1.071" r="1.071" transform="translate(12.642 6.214)" fill="#b3b3b3"/>
  </g>
</svg>
