<svg width="26" height="27" viewBox="0 0 26 27" fill="none" xmlns="http://www.w3.org/2000/svg">
<path d="M13.15 14.475C13.0625 14.4625 12.95 14.4625 12.85 14.475C10.65 14.4 8.89999 12.6 8.89999 10.3875C8.89999 8.12498 10.725 6.28748 13 6.28748C15.2625 6.28748 17.1 8.12498 17.1 10.3875C17.0875 12.6 15.35 14.4 13.15 14.475Z" stroke="white" stroke-linecap="round" stroke-linejoin="round"/>
<path d="M21.425 22.725C19.2 24.7625 16.25 26 13 26C9.75001 26 6.80001 24.7625 4.57501 22.725C4.70001 21.55 5.45001 20.4 6.78751 19.5C10.2125 17.225 15.8125 17.225 19.2125 19.5C20.55 20.4 21.3 21.55 21.425 22.725Z" stroke="white" stroke-linecap="round" stroke-linejoin="round"/>
<path d="M13 26C19.9036 26 25.5 20.4036 25.5 13.5C25.5 6.59644 19.9036 1 13 1C6.09644 1 0.5 6.59644 0.5 13.5C0.5 20.4036 6.09644 26 13 26Z" stroke="white" stroke-linecap="round" stroke-linejoin="round"/>
</svg>
