<svg width="27" height="29" viewBox="0 0 27 29" fill="none" xmlns="http://www.w3.org/2000/svg">
<path d="M25.9195 6.17868C26.0675 6.24954 26.1939 6.36715 26.2732 6.52321C26.277 6.53065 26.2806 6.53812 26.2841 6.54563C26.2918 6.56207 26.2989 6.5788 26.3054 6.59578C26.3412 6.68921 26.357 6.78516 26.355 6.87965V12.2032C26.355 12.6244 26.008 12.9659 25.5799 12.9659C25.1518 12.9659 24.8047 12.6244 24.8047 12.2032V8.09838L21.2757 9.83458C20.8928 10.023 20.4272 9.87025 20.2357 9.49349C20.0443 9.11674 20.1995 8.6586 20.5824 8.47022L23.8466 6.8643L20.5824 5.25838C20.1995 5.07 20.0443 4.61187 20.2357 4.23511C20.4272 3.85835 20.8928 3.70564 21.2757 3.89402L25.9195 6.17868ZM26.355 22.103C26.3574 22.2149 26.3347 22.329 26.2841 22.437C26.2462 22.5182 26.1939 22.5924 26.1296 22.6561C26.0643 22.7199 25.9947 22.7679 25.9195 22.8039L21.2757 25.0886C20.8928 25.277 20.4272 25.1243 20.2357 24.7475C20.0443 24.3707 20.1995 23.9126 20.5824 23.7242L23.8466 22.1183L20.5824 20.5124C20.1995 20.324 20.0443 19.8659 20.2357 19.4891C20.4272 19.1124 20.8928 18.9596 21.2757 19.148L24.8047 20.8842V16.7794C24.8047 16.3582 25.1518 16.0167 25.5799 16.0167C26.008 16.0167 26.355 16.3582 26.355 16.7794V22.103ZM2.50863 22.1183L5.77286 23.7242C6.15576 23.9126 6.31096 24.3707 6.11951 24.7475C5.92806 25.1243 5.46245 25.277 5.07955 25.0886L0.435707 22.8039C0.287691 22.7331 0.161351 22.6155 0.0820493 22.4594C0.0782685 22.452 0.074623 22.4445 0.0711116 22.437C0.0634235 22.4205 0.0563225 22.4038 0.0498273 22.3868C0.0140655 22.2934 -0.00179795 22.1975 0.000215575 22.103V16.7794C0.000215575 16.3582 0.347258 16.0167 0.775357 16.0167C1.20346 16.0167 1.5505 16.3582 1.5505 16.7794V20.8842L5.07955 19.148C5.46245 18.9596 5.92806 19.1124 6.11951 19.4891C6.31096 19.8659 6.15576 20.324 5.77286 20.5124L2.50863 22.1183ZM1.5505 8.09838V12.2032C1.5505 12.6244 1.20346 12.9659 0.775357 12.9659C0.347258 12.9659 0.000215575 12.6244 0.000215575 12.2032V6.87965C-0.0021706 6.76767 0.0205497 6.65364 0.0711116 6.54563C0.109078 6.46443 0.161358 6.39018 0.225669 6.32652C0.290936 6.26272 0.360525 6.21467 0.435707 6.17868L5.07955 3.89402C5.46245 3.70564 5.92806 3.85835 6.11951 4.23511C6.31096 4.61187 6.15576 5.07 5.77286 5.25838L2.50863 6.8643L5.77286 8.47022C6.15576 8.6586 6.31096 9.11674 6.11951 9.49349C5.92806 9.87025 5.46245 10.023 5.07955 9.83458L1.5505 8.09838ZM12.817 0.0873823C12.9247 0.0315811 13.0474 0 13.1776 0C13.3078 0 13.4305 0.0315811 13.5382 0.0873823L18.1751 2.36862C18.558 2.557 18.7132 3.01513 18.5218 3.39189C18.3303 3.76865 17.8647 3.92136 17.4818 3.73298L13.9528 1.99678V6.1016C13.9528 6.52283 13.6057 6.8643 13.1776 6.8643C12.7495 6.8643 12.4025 6.52283 12.4025 6.1016V1.99678L8.87342 3.73298C8.49052 3.92136 8.02491 3.76865 7.83346 3.39189C7.64201 3.01513 7.79721 2.557 8.18011 2.36862L12.817 0.0873823ZM13.5382 28.8952C13.4305 28.951 13.3078 28.9826 13.1776 28.9826C13.0474 28.9826 12.9247 28.951 12.817 28.8952L8.18011 26.614C7.79721 26.4256 7.64201 25.9675 7.83346 25.5907C8.02491 25.214 8.49052 25.0612 8.87342 25.2496L12.4025 26.9858V22.881C12.4025 22.4598 12.7495 22.1183 13.1776 22.1183C13.6057 22.1183 13.9528 22.4598 13.9528 22.881V26.9858L17.4818 25.2496C17.8647 25.0612 18.3303 25.214 18.5218 25.5907C18.7132 25.9675 18.558 26.4256 18.1751 26.614L13.5382 28.8952ZM13.9528 13.4373V17.5421C13.9528 17.9633 13.6057 18.3048 13.1776 18.3048C12.7495 18.3048 12.4025 17.9633 12.4025 17.5421V13.4373L8.18011 11.36C7.79721 11.1716 7.64201 10.7135 7.83346 10.3367C8.02491 9.95996 8.49052 9.80725 8.87342 9.99562L13.1776 12.1132L17.4818 9.99562C17.8647 9.80725 18.3303 9.95996 18.5218 10.3367C18.7132 10.7135 18.558 11.1716 18.1751 11.36L13.9528 13.4373Z" fill="white"/>
</svg>
