<svg width="20" height="41" viewBox="0 0 20 41" fill="none" xmlns="http://www.w3.org/2000/svg">
<path d="M0.0030445 20.3944C0.0220022 20.0752 0.14761 19.7717 0.359718 19.5324L17.48 0.5098C17.6029 0.363299 17.7541 0.242997 17.9244 0.156043C18.0947 0.0690897 18.2807 0.017258 18.4715 0.00362823C18.6622 -0.0100016 18.8537 0.0148487 19.0347 0.0767023C19.2156 0.138556 19.3823 0.236151 19.5248 0.363688C19.6673 0.491225 19.7827 0.646102 19.8641 0.819116C19.9456 0.99213 19.9914 1.17975 19.9989 1.37083C20.0064 1.56191 19.9754 1.75255 19.9078 1.93142C19.8402 2.11029 19.7373 2.27374 19.6052 2.41206L3.34689 20.4835L19.6052 38.555C19.7373 38.6933 19.8402 38.8568 19.9078 39.0357C19.9754 39.2145 20.0064 39.4052 19.9989 39.5962C19.9914 39.7873 19.9456 39.9749 19.8641 40.148C19.7827 40.321 19.6673 40.4759 19.5248 40.6034C19.3823 40.7309 19.2156 40.8285 19.0347 40.8904C18.8537 40.9522 18.6622 40.9771 18.4715 40.9634C18.2807 40.9498 18.0947 40.898 17.9244 40.811C17.7541 40.7241 17.6029 40.6038 17.48 40.4573L0.359718 21.4347C0.234405 21.2935 0.138344 21.1288 0.0771194 20.9503C0.0158945 20.7717 -0.00927766 20.5827 0.0030445 20.3944Z" fill="#4A4A4A"/>
</svg>
