<svg width="20" height="41" viewBox="0 0 20 41" fill="none" xmlns="http://www.w3.org/2000/svg">
<path d="M19.997 20.3944C19.978 20.0752 19.8524 19.7717 19.6403 19.5324L2.51996 0.5098C2.39706 0.363299 2.24594 0.242997 2.07563 0.156043C1.90532 0.0690897 1.71929 0.017258 1.52855 0.00362823C1.3378 -0.0100016 1.14627 0.0148487 0.965321 0.0767023C0.784374 0.138556 0.617699 0.236151 0.475214 0.363688C0.332729 0.491225 0.217344 0.646102 0.135897 0.819116C0.054449 0.99213 0.00860591 1.17975 0.00110048 1.37083C-0.00640685 1.56191 0.0245589 1.75255 0.092184 1.93142C0.159809 2.11029 0.262712 2.27374 0.394752 2.41206L16.6531 20.4835L0.394751 38.555C0.262711 38.6933 0.159807 38.8568 0.0921824 39.0357C0.0245573 39.2145 -0.00640851 39.4052 0.00109881 39.5962C0.00860422 39.7873 0.0544473 39.9749 0.135895 40.148C0.217343 40.321 0.332728 40.4759 0.475212 40.6034C0.617697 40.7309 0.784372 40.8285 0.965319 40.8904C1.14627 40.9522 1.3378 40.9771 1.52854 40.9634C1.71928 40.9498 1.90532 40.898 2.07563 40.811C2.24594 40.7241 2.39706 40.6038 2.51996 40.4573L19.6403 21.4347C19.7656 21.2935 19.8617 21.1288 19.9229 20.9503C19.9841 20.7717 20.0093 20.5827 19.997 20.3944Z" fill="#4A4A4A"/>
</svg>
